<?xml version="1.0" encoding="UTF-8" standalone="no"?>
<!-- Created with Inkscape (http://www.inkscape.org/) -->

<svg
   xmlns:dc="http://purl.org/dc/elements/1.1/"
   xmlns:cc="http://creativecommons.org/ns#"
   xmlns:rdf="http://www.w3.org/1999/02/22-rdf-syntax-ns#"
   xmlns:svg="http://www.w3.org/2000/svg"
   xmlns="http://www.w3.org/2000/svg"
   xmlns:sodipodi="http://sodipodi.sourceforge.net/DTD/sodipodi-0.dtd"
   xmlns:inkscape="http://www.inkscape.org/namespaces/inkscape"
   width="400"
   height="107.26733"
   id="svg3893"
   version="1.1"
   inkscape:version="0.48.4 r9939"
   sodipodi:docname="blueturtlelabs.svg"
   inkscape:export-filename="/home/chris/Documents/docs/blueturtlelabs.org/branding/blueturtlelabs.png"
   inkscape:export-xdpi="96"
   inkscape:export-ydpi="96">
  <defs
     id="defs3895" />
  <sodipodi:namedview
     id="base"
     pagecolor="#ffffff"
     bordercolor="#666666"
     borderopacity="1.0"
     inkscape:pageopacity="0.0"
     inkscape:pageshadow="2"
     inkscape:zoom="1.979899"
     inkscape:cx="156.86389"
     inkscape:cy="3.626148"
     inkscape:document-units="px"
     inkscape:current-layer="layer1"
     showgrid="false"
     fit-margin-top="0"
     fit-margin-left="0"
     fit-margin-right="0"
     fit-margin-bottom="0"
     inkscape:window-width="1366"
     inkscape:window-height="709"
     inkscape:window-x="0"
     inkscape:window-y="27"
     inkscape:window-maximized="1" />
  <metadata
     id="metadata3898">
    <rdf:RDF>
      <cc:Work
         rdf:about="">
        <dc:format>image/svg+xml</dc:format>
        <dc:type
           rdf:resource="http://purl.org/dc/dcmitype/StillImage" />
        <dc:title></dc:title>
      </cc:Work>
    </rdf:RDF>
  </metadata>
  <g
     inkscape:label="Layer 1"
     inkscape:groupmode="layer"
     id="layer1"
     transform="translate(-385.91268,-881.89386)">
    <g
       id="g3822"
       transform="matrix(1.5730637,0,0,1.5730637,-221.15253,-566.85231)">
      <path
         inkscape:connector-curvature="0"
         id="path3012"
         d="m 423.30669,920.97127 c -0.14283,-0.003 -0.27822,0.029 -0.41466,0.0809 -0.34833,0.13243 -0.94547,0.72036 -2.01262,2.00251 -2.24018,2.6915 -2.53509,3.23649 -2.68012,4.89501 -0.0307,0.35132 -0.14257,1.09653 -0.24273,1.65864 -0.15402,0.86434 -0.18043,1.35919 -0.18205,3.19591 -0.002,2.36538 0.0571,2.77767 0.50569,3.43865 0.11814,0.17409 0.21238,0.32758 0.21238,0.34386 0,0.0163 -0.1038,0.0591 -0.23261,0.091 -0.49948,0.12381 -2.51942,0.91381 -3.45887,1.35523 -2.37704,1.1169 -4.34588,2.50461 -6.2907,4.42978 -0.40786,0.40374 -0.77477,0.72818 -0.8192,0.72818 -0.0444,0 -0.25608,-0.34546 -0.46523,-0.77875 -1.84802,-3.82839 -2.30218,-4.60648 -3.11501,-5.24899 -0.68473,-0.54125 -1.2667,-0.72445 -2.18455,-0.67761 -1.24317,0.0634 -2.32168,0.60579 -3.95444,1.97216 -0.96302,0.80589 -2.80539,2.6505 -3.5499,3.54989 -2.19091,2.64673 -4.30751,6.74084 -5.08717,9.85071 -0.11464,0.45729 -0.3405,1.58465 -0.50568,2.49807 -0.16518,0.91343 -0.4375,2.07383 -0.5967,2.5891 -0.15921,0.51526 -0.57539,1.87635 -0.93046,3.02398 -1.53106,4.94864 -1.3859,4.35397 -1.38557,5.54229 1.8e-4,0.5927 0.0535,1.21613 0.11125,1.4058 0.18499,0.60737 0.6325,1.25325 1.07205,1.54739 0.36724,0.24575 0.47809,0.28318 1.00125,0.28318 1.62243,0 3.49169,-1.23616 5.09728,-3.36785 1.68421,-2.23606 2.85786,-4.9154 3.37796,-7.70661 0.36017,-1.93284 0.44084,-2.21159 0.92035,-3.1858 0.75706,-1.53813 1.78669,-2.61042 2.92284,-3.0341 0.26817,-0.1 0.56371,-0.24994 0.65739,-0.33375 0.20649,-0.18471 0.66319,-0.34386 0.98103,-0.34386 0.2923,0 0.41824,-0.24663 0.20227,-0.40455 -0.51491,-0.3765 -1.99077,-0.36627 -2.80148,0.0202 -1.30271,0.62104 -2.28828,2.13054 -2.85205,4.35898 -0.24075,0.95162 -1.60643,4.68871 -2.23512,6.11877 -0.85269,1.93957 -2.22742,3.94791 -3.52967,5.14785 -1.39754,1.28775 -3.0471,1.7177 -3.60046,0.94057 -0.28606,-0.40174 -0.45537,-1.3642 -0.39444,-2.27557 0.0858,-1.28332 0.28639,-2.18103 0.78887,-3.59035 0.62644,-1.75699 0.92493,-2.74654 1.1833,-3.88365 0.24507,-1.07861 0.20627,-0.94932 1.23386,-4.13648 0.94699,-2.93716 1.5716,-4.48569 2.38683,-5.97718 2.28903,-4.18781 5.25714,-7.38802 8.15161,-8.77865 0.73167,-0.35151 0.7625,-0.35398 1.63841,-0.35398 1.05897,0 1.42468,0.13484 2.18455,0.82932 0.63588,0.58116 1.06692,1.24839 1.61819,2.47785 0.25366,0.56573 0.64488,1.36201 0.85966,1.76989 l 0.38432,0.74841 -0.2933,0.32364 c -0.46354,0.51308 -1.59358,2.03277 -2.20478,2.9633 -1.74531,2.65717 -2.72425,5.35451 -3.05432,8.42468 -0.58318,5.42437 0.41099,10.44918 3.1858,16.10094 0.7739,1.5763 1.45041,2.69291 2.41716,3.98478 0.34299,0.45834 0.60834,0.84803 0.5866,0.86978 -0.0217,0.0217 -0.59023,0.29861 -1.26421,0.60682 -1.53819,0.70339 -2.21626,1.10321 -2.99364,1.74966 -1.21144,1.0074 -2.07137,2.21115 -2.56887,3.6308 -0.24251,0.69194 -0.25123,0.81734 -0.25285,1.97217 -0.002,1.12364 0.0176,1.29251 0.22251,1.86091 0.55285,1.53348 1.50291,2.50007 2.77114,2.82171 0.54746,0.13885 1.85648,0.0446 2.70034,-0.20227 0.99243,-0.29036 2.31165,-0.94491 3.2566,-1.60807 1.501,-1.05339 4.32865,-4.16521 4.32865,-4.76354 0,-0.33786 -0.209,-0.24932 -0.78887,0.32364 -0.57619,0.56934 -1.34906,1.12039 -2.0733,1.48671 -0.21079,0.10661 -0.64301,0.40999 -0.97091,0.67761 -1.40109,1.14358 -3.01292,2.07253 -4.08592,2.34637 -0.61079,0.15588 -1.81179,0.16396 -2.2958,0.0202 -0.49715,-0.14764 -1.08759,-0.76826 -1.31477,-1.37546 -0.14406,-0.38503 -0.18205,-0.6694 -0.18205,-1.37546 0,-1.86099 0.59069,-3.52368 1.81035,-5.05682 0.69222,-0.87015 1.40569,-1.39774 2.76103,-2.05308 0.6675,-0.32275 1.21364,-0.63394 1.21364,-0.68773 0,-0.0538 0.38757,0.27507 0.85966,0.72819 1.23212,1.18262 2.0479,1.76232 3.73194,2.68012 3.33836,1.81941 7.23441,2.74548 11.10479,2.62955 1.4308,-0.0429 1.88004,-0.14543 1.83058,-0.40455 -0.0206,-0.1081 -0.21716,-0.1466 -1.04171,-0.20227 -0.99501,-0.0672 -1.46669,-0.15095 -2.42728,-0.445 -0.25763,-0.0789 -0.76119,-0.21441 -1.1125,-0.30341 -1.13014,-0.28633 -1.2121,-0.31763 -2.33626,-0.63716 -0.60894,-0.17309 -1.22481,-0.35469 -1.36534,-0.41466 -0.14053,-0.06 -0.37527,-0.14644 -0.5158,-0.19216 -0.81509,-0.2652 -2.93567,-1.32413 -3.87353,-1.93171 -3.60679,-2.33663 -6.03841,-5.38811 -7.47399,-9.37536 -0.86282,-2.39644 -1.21067,-4.04781 -1.50694,-7.10991 -0.32969,-3.40756 0.01,-6.37155 1.10239,-9.70911 1.26835,-3.87456 2.8123,-6.27109 5.80524,-9.00116 1.29729,-1.18335 2.1338,-1.81311 3.9949,-2.99364 0.91899,-0.58293 3.24719,-1.50017 4.42978,-1.74966 1.68486,-0.35547 3.77522,-0.49109 5.12763,-0.32364 5.77451,0.71499 9.8703,5.32103 11.29695,12.70276 0.47916,2.47925 0.59045,3.68625 0.58659,6.34126 -0.003,2.13629 -0.0253,2.39944 -0.36409,4.90513 -0.30144,2.22927 -1.03898,4.95316 -1.89125,6.97842 -1.65217,3.92606 -4.60969,7.39432 -7.64593,8.97082 -1.60951,0.8357 -3.6976,1.41464 -4.22751,1.17318 l -0.20227,-0.091 0,-3.29705 c 9.7e-4,-4.26652 0.28027,-11.79297 0.50568,-13.66356 0.54084,-4.48809 0.61776,-8.75626 0.33375,-17.53708 -0.0492,-1.52237 -0.0923,-3.34283 -0.10113,-4.04547 l -0.0202,-1.27432 -0.20227,0 c -0.39284,0 -0.4048,0.16958 -0.18205,6.68513 0.10546,3.08192 0.10576,7.74345 0,10.13389 -0.0801,1.80983 -0.50466,7.33684 -0.67761,8.81911 -0.0437,0.37474 -0.11863,3.24329 -0.17194,6.38172 -0.1385,8.15425 -0.12571,8.31888 0.64728,8.43479 0.95915,0.14383 2.75598,-0.16606 4.25785,-0.7383 2.67426,-1.01894 4.34844,-2.08297 6.48285,-4.10614 0.29004,-0.27493 0.57593,-0.48229 0.62705,-0.46523 0.15919,0.0531 2.53476,2.71308 3.14535,3.51955 0.99322,1.31185 1.81202,3.00811 2.20478,4.56126 0.29425,1.16361 0.21485,1.77754 -0.31353,2.30592 -0.55102,0.55101 -1.72423,0.63742 -3.04421,0.23261 -0.77732,-0.23838 -2.32887,-0.98138 -3.06444,-1.47659 -0.32574,-0.21931 -0.83837,-0.52292 -1.14284,-0.67762 -0.30448,-0.1547 -0.81861,-0.47795 -1.14284,-0.71807 -0.32424,-0.24012 -0.63724,-0.43146 -0.68773,-0.41466 -0.45914,0.15285 0.5544,1.24676 2.27557,2.46773 1.92744,1.3673 3.48485,2.01863 5.49172,2.28569 1.77673,0.23644 2.80018,-0.21693 3.17569,-1.4058 0.15785,-0.49976 0.06,-2.07705 -0.17194,-2.77114 -0.58397,-1.74719 -1.64629,-3.22194 -4.65228,-6.46263 -0.88515,-0.95426 -1.64022,-1.79423 -1.67887,-1.86091 -0.0474,-0.0818 0.0206,-0.22198 0.20228,-0.43489 0.75677,-0.8869 1.55465,-2.0882 2.52841,-3.80274 0.88602,-1.56004 1.83494,-4.56588 2.15421,-6.83683 0.56333,-4.00689 0.18894,-9.20645 -0.98102,-13.69389 -0.15877,-0.60895 -0.31934,-1.18422 -0.35398,-1.27433 -0.053,-0.13772 -0.0366,-0.14994 0.10113,-0.091 0.0901,0.0386 0.46598,0.10297 0.82932,0.14159 0.40045,0.0426 0.84075,0.15462 1.11251,0.28319 1.04666,0.49515 2.37356,1.6135 3.46898,2.92284 0.92252,1.10267 2.53099,3.51078 3.39819,5.08717 1.13405,2.06145 1.69765,2.85106 2.89251,4.04547 2.47499,2.47407 4.22853,3.04571 5.46137,1.78 0.29058,-0.29832 0.59327,-0.78367 1.05182,-1.68898 1.42731,-2.81787 1.69877,-4.53127 1.02148,-6.55365 -0.35375,-1.05633 -0.69985,-1.5926 -3.84319,-5.94683 -0.37846,-0.52426 -1.14347,-1.69478 -1.7092,-2.59921 -1.26452,-2.02157 -1.64225,-2.52514 -3.41842,-4.55115 -4.16143,-4.74678 -5.84151,-6.15922 -7.29195,-6.15922 -0.73011,0 -3.19756,0.80932 -4.18706,1.37546 -1.45655,0.83338 -2.57715,2.09748 -2.95318,3.32739 -0.0369,0.12067 -0.21543,-0.007 -0.86978,-0.65738 -0.93802,-0.93195 -1.73475,-1.50347 -2.8925,-2.06319 l -0.8091,-0.39443 0.0607,-0.90012 c 0.19022,-2.54961 0.0317,-4.78368 -0.45511,-6.35138 -0.21414,-0.68966 -2.72207,-5.72272 -3.20603,-6.43228 -0.68044,-0.99764 -1.35328,-1.51613 -1.97216,-1.52717 z m -0.45512,1.30466 c 0.19424,-0.0211 0.39875,0.0159 0.63716,0.091 0.89955,0.28355 1.83729,1.4294 3.12512,3.83307 1.3823,2.57999 1.75648,4.32714 1.75978,8.24264 l 0,1.59796 -0.19216,-0.0405 c -1.12757,-0.2621 -1.55866,-0.31184 -2.95319,-0.35398 -1.78738,-0.054 -3.13393,0.0685 -4.77365,0.445 -1.44153,0.33102 -1.44625,0.33432 -1.44625,0.17194 0,-0.0771 -0.0616,-0.16533 -0.13148,-0.19216 -0.42454,-0.16292 -0.56825,-2.58051 -0.34386,-5.65354 0.1595,-2.18438 0.27685,-2.85799 0.64727,-3.65103 0.54732,-1.17174 1.96088,-3.23376 2.68012,-3.91399 0.37448,-0.35416 0.6674,-0.54123 0.99114,-0.57648 z m 17.00106,13.19833 c 0.97642,-0.0528 2.09004,0.40149 3.2566,1.335 1.23434,0.98775 3.9163,3.76623 5.05683,5.22877 0.65625,0.84153 3.17064,4.40025 4.30842,6.09853 0.45504,0.67922 1.16888,1.67621 1.57773,2.21489 0.85951,1.13247 1.70523,2.76884 1.99239,3.83308 0.41104,1.52334 0.0984,3.88781 -0.75852,5.67376 -0.38438,0.80108 -0.83252,1.24122 -1.4058,1.38557 -0.44185,0.11125 -0.47103,0.10643 -1.02148,-0.0303 -0.47974,-0.1192 -1.33782,-0.53774 -1.91148,-0.93046 -1.22471,-0.8384 -3.4989,-3.70177 -6.13899,-7.73695 -1.1646,-1.77999 -2.02338,-2.84471 -3.17569,-3.95444 -1.52876,-1.47226 -2.90779,-2.3114 -4.13649,-2.5183 l -0.62705,-0.11125 -0.31352,-0.80909 c -0.63812,-1.6421 -1.64079,-3.5771 -2.37671,-4.5916 -0.14951,-0.20611 -0.27307,-0.47559 -0.27307,-0.59671 0,-0.67942 1.17201,-2.05063 2.49807,-2.93296 1.04699,-0.69664 2.39423,-1.36103 3.0341,-1.49682 0.13365,-0.0283 0.27518,-0.0531 0.41466,-0.0607 z m -12.28809,2.95319 c 0.0468,0 0.14212,0.0355 0.21238,0.0809 0.0703,0.0454 0.0873,0.0809 0.0405,0.0809 -0.0468,0 -0.14213,-0.0355 -0.21239,-0.0809 -0.0702,-0.0454 -0.0873,-0.0809 -0.0405,-0.0809 z m 0.95068,0.42477 c 0.0558,-6.4e-4 0.13289,0.0341 0.16182,0.0809 0.0654,0.10574 0.0321,0.10574 -0.13148,0 -0.0768,-0.0496 -0.0913,-0.0803 -0.0303,-0.0809 z m 0.34386,0.17193 c 0.0558,-6.4e-4 0.12278,0.0341 0.15171,0.0809 0.0654,0.10574 0.0423,0.10574 -0.12136,0 -0.0768,-0.0496 -0.0913,-0.0803 -0.0303,-0.0809 z m 0.66751,0.41466 0.36409,0.23262 c 0.19908,0.12553 0.35398,0.23566 0.35398,0.25284 0,0.0913 -0.16242,0.008 -0.42478,-0.2225 l -0.29329,-0.26296 z m 0.93045,0.66751 0.36409,0.28318 c 0.19908,0.15598 0.3641,0.28784 0.3641,0.30341 0,0.10176 -0.18294,-0.0154 -0.43489,-0.28318 l -0.2933,-0.30341 z m 1.02148,0.92034 0.24273,0.20227 c 0.12881,0.11356 0.23261,0.21737 0.23261,0.23262 0,0.0668 -0.07,0.0166 -0.26295,-0.20228 l -0.21239,-0.23261 z m -6.67501,2.02273 c -0.26676,-0.0265 -0.36215,0.27882 -0.0303,0.59671 0.13277,0.1272 0.75002,0.47619 1.36535,0.77875 2.0398,1.003 3.28363,1.94684 4.04546,3.06444 0.80948,1.18749 0.85481,2.49875 0.13148,3.79262 -0.41314,0.73901 -1.49709,2.20415 -2.15421,2.90262 -0.77286,0.8215 -1.17184,1.36732 -1.50694,2.08341 -0.71698,1.53216 -0.32036,2.2193 2.15421,3.71172 1.3948,0.8412 1.75171,1.21296 2.03285,2.11375 0.20597,0.65996 0.23125,1.86129 0.0506,2.71046 -0.4015,1.88695 -1.53821,3.82849 -3.15547,5.39058 -0.26673,0.25763 -0.6366,0.6663 -0.8192,0.91023 -0.18261,0.24393 -0.60257,0.65873 -0.93046,0.92035 -0.57645,0.45994 -0.70808,0.66765 -0.48545,0.74841 0.42865,0.15549 2.53427,-1.41476 3.82296,-2.85206 1.15435,-1.28746 2.7286,-3.48657 3.2566,-4.55114 0.85374,-1.72135 0.51622,-2.82511 -1.28444,-4.28819 -0.37399,-0.30388 -0.88848,-0.82053 -1.14284,-1.14285 -0.25437,-0.32232 -0.79302,-0.97225 -1.20353,-1.44625 -1.4198,-1.63938 -1.49403,-2.15573 -0.48545,-3.64092 0.19905,-0.29312 0.61445,-0.76877 0.92034,-1.05182 1.64451,-1.52175 2.10711,-2.04322 2.48796,-2.8116 0.36182,-0.72997 0.37421,-0.77412 0.37421,-1.56761 0,-0.74762 -0.0227,-0.86634 -0.27307,-1.37546 -0.58282,-1.18494 -1.81893,-2.11739 -5.02649,-3.81285 -0.88081,-0.46558 -1.70188,-0.93035 -1.83057,-1.03159 -0.11963,-0.0941 -0.22461,-0.14288 -0.31353,-0.15171 z m -4.13649,0.84955 c -0.60628,0.0196 -2.48765,0.33769 -3.08467,0.53602 -2.72718,0.90601 -5.43474,3.13939 -6.67501,5.51195 -0.38783,0.7419 -0.62234,1.69984 -0.53602,2.17443 0.27015,1.48537 1.55886,2.25252 4.53091,2.70035 0.91683,0.13815 0.97514,0.16145 1.2541,0.45512 0.8262,0.86973 0.71057,1.96995 -0.36409,3.37796 -0.81816,1.07194 -2.1529,2.59674 -3.20603,3.67126 -2.24467,2.29023 -2.90254,3.5809 -2.90262,5.69399 -9e-5,1.60837 0.29616,2.45037 1.18329,3.3375 0.44859,0.44859 0.72326,0.6272 1.84069,1.17319 0.72237,0.35295 1.39302,0.62661 1.48671,0.61693 0.0979,-0.0101 0.17853,-0.0841 0.19216,-0.18204 0.0177,-0.12682 -0.0784,-0.23823 -0.39443,-0.41466 -0.43424,-0.24244 -0.70442,-0.53104 -0.81921,-0.90012 -0.0356,-0.11442 -0.26572,-0.48086 -0.5158,-0.80909 -1.15214,-1.51223 -1.45066,-2.67288 -1.10239,-4.35899 0.45214,-2.18895 1.34852,-3.74375 3.05433,-5.30967 0.38721,-0.35546 1.10332,-1.01234 1.58784,-1.45637 3.09075,-2.83241 3.25749,-4.4177 0.54614,-5.07706 -0.46324,-0.11265 -0.75501,-0.26067 -1.32489,-0.6675 -0.40184,-0.28687 -1.05178,-0.70964 -1.44625,-0.94057 -0.80576,-0.47169 -1.38606,-1.01172 -1.56762,-1.44625 -0.20517,-0.49105 -0.16464,-1.2444 0.11125,-1.8508 0.6355,-1.39681 2.64839,-3.25878 4.62194,-4.27808 1.11857,-0.57772 1.78248,-0.80036 2.78126,-0.94057 0.49092,-0.0689 0.9297,-0.14646 0.97091,-0.17193 0.11937,-0.0738 0.0822,-0.38394 -0.0506,-0.43489 -0.0271,-0.0104 -0.0853,-0.0129 -0.17193,-0.0101 z"
         style="fill:#80b3ff;fill-opacity:1" />
      <g
         style="font-size:12px;font-style:normal;font-variant:normal;font-weight:normal;font-stretch:normal;text-align:end;line-height:125%;letter-spacing:0px;word-spacing:0px;text-anchor:end;fill:#131f7e;fill-opacity:1;stroke:none;font-family:Cabin;-inkscape-font-specification:Cabin"
         id="text3093">
        <path
           d="m 452.84608,987.16113 c -0.38401,0 -0.80001,-0.0533 -1.248,-0.16 -0.44801,-0.10667 -0.89601,-0.256 -1.344,-0.448 -0.44801,-0.192 -0.87467,-0.42667 -1.28,-0.704 -0.384,-0.29867 -0.704,-0.62934 -0.96,-0.992 l -0.32,1.984 -2.56,0 0,-24 2.88,0 0,10.016 c 1.10933,-1.34399 2.73066,-2.01599 4.864,-2.016 1.04532,10e-6 2.00532,0.22401 2.88,0.672 0.87465,0.42668 1.62132,1.01334 2.24,1.76 0.61865,0.74667 1.09865,1.62134 1.44,2.624 0.34132,0.98134 0.51198,2.016 0.512,3.104 -2e-5,1.13067 -0.18135,2.19733 -0.544,3.2 -0.36268,0.98133 -0.86401,1.84533 -1.504,2.592 -0.64001,0.72533 -1.39735,1.30133 -2.272,1.728 -0.85334,0.42666 -1.78134,0.64 -2.784,0.64 m -0.32,-13.76 c -0.61867,1e-5 -1.21601,0.12801 -1.792,0.384 -0.55467,0.23467 -1.04534,0.59734 -1.472,1.088 -0.42667,0.46934 -0.768,1.05601 -1.024,1.76 -0.256,0.68267 -0.384,1.472 -0.384,2.368 0,0.91734 0.11733,1.728 0.352,2.432 0.256,0.704 0.59733,1.29067 1.024,1.76 0.42666,0.46933 0.91733,0.82133 1.472,1.056 0.57599,0.23466 1.18399,0.352 1.824,0.352 0.68266,0 1.30132,-0.14934 1.856,-0.448 0.55466,-0.29867 1.02399,-0.704 1.408,-1.216 0.38399,-0.512 0.68265,-1.10933 0.896,-1.792 0.21332,-0.68266 0.31999,-1.39733 0.32,-2.144 -10e-6,-0.78933 -0.10668,-1.52533 -0.32,-2.208 -0.21335,-0.68266 -0.52268,-1.26933 -0.928,-1.76 -0.38401,-0.51199 -0.85334,-0.90666 -1.408,-1.184 -0.55468,-0.29866 -1.16268,-0.44799 -1.824,-0.448"
           style="font-size:32px;text-align:start;text-anchor:start;fill:#131f7e;font-family:Cabin;-inkscape-font-specification:Cabin"
           id="path3883"
           inkscape:connector-curvature="0" />
        <path
           d="m 468.29208,984.85713 -0.416,2.304 -0.928,0 c -1.408,0 -2.44267,-0.352 -3.104,-1.056 -0.64,-0.72534 -0.96,-1.632 -0.96,-2.72 l 0,-20.544 2.88,0 0,18.88 c 0,0.66133 0.0213,1.20533 0.064,1.632 0.064,0.40533 0.18133,0.72533 0.352,0.96 0.17066,0.21333 0.416,0.36266 0.736,0.448 0.34133,0.064 0.79999,0.096 1.376,0.096"
           style="font-size:32px;text-align:start;text-anchor:start;fill:#131f7e;font-family:Cabin;-inkscape-font-specification:Cabin"
           id="path3885"
           inkscape:connector-curvature="0" />
        <path
           d="m 483.34258,986.84113 -2.56,0 -0.32,-1.728 c -0.98134,1.36533 -2.43201,2.048 -4.352,2.048 -3.86134,0 -5.792,-2.29334 -5.792,-6.88 l 0,-9.12 2.88,0 0,8.32 c 0,3.41333 1.21599,5.12 3.648,5.12 1.66399,0 2.86932,-0.59734 3.616,-1.792 l 0,-11.648 2.88,0 0,15.68"
           style="font-size:32px;text-align:start;text-anchor:start;fill:#131f7e;font-family:Cabin;-inkscape-font-specification:Cabin"
           id="path3887"
           inkscape:connector-curvature="0" />
        <path
           d="m 500.57258,979.00113 -11.36,0 c 0.34133,3.73333 2.30399,5.6 5.888,5.6 1.59999,0 3.10399,-0.30934 4.512,-0.928 l 0.384,2.272 c -1.85601,0.81066 -3.60534,1.216 -5.248,1.216 -1.32267,0 -2.51734,-0.21334 -3.584,-0.64 -1.04534,-0.42667 -1.93067,-1.00267 -2.656,-1.728 -0.72534,-0.74667 -1.28,-1.62133 -1.664,-2.624 -0.384,-1.024 -0.576,-2.12266 -0.576,-3.296 0,-1.13066 0.18133,-2.18666 0.544,-3.168 0.36267,-0.98133 0.87467,-1.82399 1.536,-2.528 0.66133,-0.72532 1.46133,-1.29066 2.4,-1.696 0.95999,-0.42666 2.02666,-0.63999 3.2,-0.64 1.00266,10e-6 1.91999,0.14934 2.752,0.448 0.83199,0.29868 1.53599,0.73601 2.112,1.312 0.59732,0.57601 1.05599,1.28001 1.376,2.112 0.34132,0.81067 0.51199,1.72801 0.512,2.752 -10e-6,0.59734 -0.0427,1.10934 -0.128,1.536 m -6.688,-5.6 c -2.32534,1e-5 -3.79734,1.20534 -4.416,3.616 l 8.256,0 c -10e-6,-1.15199 -0.32001,-2.03733 -0.96,-2.656 -0.64001,-0.63999 -1.60001,-0.95999 -2.88,-0.96"
           style="font-size:32px;text-align:start;text-anchor:start;fill:#131f7e;font-family:Cabin;-inkscape-font-specification:Cabin"
           id="path3889"
           inkscape:connector-curvature="0" />
      </g>
      <g
         style="font-size:12px;font-style:normal;font-variant:normal;font-weight:normal;font-stretch:normal;text-align:end;line-height:125%;letter-spacing:0px;word-spacing:0px;text-anchor:end;fill:#131f7e;fill-opacity:1;stroke:none;font-family:Cabin;-inkscape-font-specification:Cabin"
         id="text2999">
        <path
           d="m 594.38504,986.20114 0,0.896 c -1.51467,0 -2.80534,-0.50133 -3.872,-1.504 -1.06667,-1.02399 -1.6,-2.32533 -1.6,-3.904 l 0,-18.88 1.024,0 0,18.88 c 0,1.30134 0.42667,2.37867 1.28,3.232 0.87466,0.85334 1.93066,1.28 3.168,1.28"
           style="font-size:32px;fill:#131f7e;fill-opacity:1;font-family:Poiret One;-inkscape-font-specification:Poiret One"
           id="path3892"
           inkscape:connector-curvature="0" />
        <path
           d="m 610.09354,972.40914 0,14.4 -1.024,0 0,-3.584 c -0.59735,1.21601 -1.49335,2.176 -2.688,2.88 -1.19468,0.704 -2.47467,1.056 -3.84,1.056 -2.09067,0 -3.88267,-0.736 -5.376,-2.208 -1.49333,-1.49333 -2.24,-3.27466 -2.24,-5.344 0,-2.06932 0.74667,-3.83999 2.24,-5.312 1.49333,-1.49332 3.28533,-2.23998 5.376,-2.24 1.36533,2e-5 2.66666,0.36268 3.904,1.088 1.25865,0.72535 2.13332,1.68535 2.624,2.88 l 0,-3.616 1.024,0 m -14.144,7.232 c 0,1.79201 0.65067,3.34934 1.952,4.672 1.32266,1.30134 2.88,1.952 4.672,1.952 1.81332,0 3.35999,-0.65066 4.64,-1.952 1.27999,-1.32266 1.91999,-2.87999 1.92,-4.672 -1e-5,-1.81332 -0.65068,-3.38132 -1.952,-4.704 -1.28001,-1.32265 -2.81601,-1.98398 -4.608,-1.984 -1.792,2e-5 -3.34934,0.67202 -4.672,2.016 -1.30133,1.32268 -1.952,2.88001 -1.952,4.672"
           style="font-size:32px;fill:#131f7e;fill-opacity:1;font-family:Poiret One;-inkscape-font-specification:Poiret One"
           id="path3894"
           inkscape:connector-curvature="0" />
        <path
           d="m 613.97554,986.80914 0,-24 1.024,0 0,13.12 c 0.576,-1.17332 1.472,-2.11198 2.688,-2.816 1.23733,-0.70398 2.51733,-1.05598 3.84,-1.056 2.11199,2e-5 3.90399,0.74668 5.376,2.24 1.49332,1.47201 2.23998,3.24268 2.24,5.312 -2e-5,2.06934 -0.74668,3.85067 -2.24,5.344 -1.47201,1.472 -3.26401,2.208 -5.376,2.208 -1.28001,0 -2.528,-0.34133 -3.744,-1.024 -1.216,-0.704 -2.144,-1.64266 -2.784,-2.816 l 0,3.488 -1.024,0 m 0.96,-7.168 c 0,1.79201 0.65067,3.34934 1.952,4.672 1.32266,1.30134 2.87999,1.952 4.672,1.952 1.81332,0 3.35999,-0.65066 4.64,-1.952 1.27999,-1.32266 1.91999,-2.87999 1.92,-4.672 -10e-6,-1.81332 -0.65068,-3.38132 -1.952,-4.704 -1.28001,-1.32265 -2.81601,-1.98398 -4.608,-1.984 -1.79201,2e-5 -3.34934,0.67202 -4.672,2.016 -1.30133,1.32268 -1.952,2.88001 -1.952,4.672"
           style="font-size:32px;fill:#131f7e;fill-opacity:1;font-family:Poiret One;-inkscape-font-specification:Poiret One"
           id="path3896"
           inkscape:connector-curvature="0" />
        <path
           d="m 635.36154,972.92114 c -0.55467,2e-5 -1.04534,0.18135 -1.472,0.544 -0.42667,0.36268 -0.64,0.81068 -0.64,1.344 0,0.53335 0.23467,1.02401 0.704,1.472 0.49066,0.44801 1.06666,0.86401 1.728,1.248 0.68266,0.36268 1.36533,0.75734 2.048,1.184 0.68266,0.42668 1.25866,0.97068 1.728,1.632 0.49066,0.66134 0.73599,1.41867 0.736,2.272 -10e-6,1.25867 -0.48001,2.336 -1.44,3.232 -0.93867,0.87467 -2.08,1.312 -3.424,1.312 -0.85334,0 -1.65333,-0.18133 -2.4,-0.544 -0.72533,-0.384 -1.25867,-0.88533 -1.6,-1.504 l 0,-1.536 c 0.81067,1.792 2.112,2.688 3.904,2.688 1.10933,0 2.03733,-0.34133 2.784,-1.024 0.76799,-0.68266 1.15199,-1.43999 1.152,-2.272 -10e-6,-0.85333 -0.24534,-1.56799 -0.736,-2.144 -0.46934,-0.57599 -1.04534,-1.06666 -1.728,-1.472 -0.68267,-0.40532 -1.36534,-0.79999 -2.048,-1.184 -0.66134,-0.40532 -1.23733,-0.88532 -1.728,-1.44 -0.46933,-0.57599 -0.704,-1.23732 -0.704,-1.984 0,-0.76798 0.29867,-1.40798 0.896,-1.92 0.61867,-0.53332 1.408,-0.79998 2.368,-0.8 0.96,2e-5 1.78133,0.37335 2.464,1.12 l 0,1.312 c -0.68267,-1.02398 -1.54667,-1.53598 -2.592,-1.536"
           style="font-size:32px;fill:#131f7e;fill-opacity:1;font-family:Poiret One;-inkscape-font-specification:Poiret One"
           id="path3898"
           inkscape:connector-curvature="0" />
      </g>
      <g
         style="font-size:12px;font-style:normal;font-variant:normal;font-weight:normal;font-stretch:normal;text-align:end;line-height:125%;letter-spacing:0px;word-spacing:0px;text-anchor:end;fill:#80b3ff;fill-opacity:1;stroke:none;font-family:Cabin;-inkscape-font-specification:Cabin"
         id="text3003">
        <path
           d="m 519.01511,984.85713 -0.224,2.304 -2.592,0 c -1.38667,0 -2.42134,-0.36267 -3.104,-1.088 -0.66134,-0.72534 -0.992,-1.61067 -0.992,-2.656 l 0,-10.016 -2.688,0 0.256,-2.24 2.432,0 0,-3.872 2.88,-0.288 0,4.16 4.128,0 0,2.24 -4.128,0 0,8.256 c 0,0.74667 0.0213,1.33333 0.064,1.76 0.0427,0.42667 0.15999,0.74666 0.352,0.96 0.21333,0.21333 0.54399,0.352 0.992,0.416 0.44799,0.0427 1.07733,0.064 1.888,0.064 l 0.736,0"
           style="font-size:32px;fill:#80b3ff;font-family:Cabin;-inkscape-font-specification:Cabin"
           id="path3901"
           inkscape:connector-curvature="0" />
        <path
           d="m 534.46761,986.84113 -2.56,0 -0.32,-1.728 c -0.98134,1.36533 -2.43201,2.048 -4.352,2.048 -3.86134,0 -5.792,-2.29334 -5.792,-6.88 l 0,-9.12 2.88,0 0,8.32 c 0,3.41333 1.216,5.12 3.648,5.12 1.66399,0 2.86932,-0.59734 3.616,-1.792 l 0,-11.648 2.88,0 0,15.68"
           style="font-size:32px;fill:#80b3ff;font-family:Cabin;-inkscape-font-specification:Cabin"
           id="path3903"
           inkscape:connector-curvature="0" />
        <path
           d="m 546.64161,970.58513 -0.64,3.168 -0.992,0 c -0.32001,10e-6 -0.66134,0.064 -1.024,0.192 -0.36267,0.10667 -0.71467,0.25601 -1.056,0.448 -0.32,0.19201 -0.61867,0.40534 -0.896,0.64 -0.27734,0.23467 -0.48,0.48001 -0.608,0.736 l 0,11.072 -3.072,0 0,-15.68 2.368,0 0.352,2.592 c 0.98133,-1.10932 1.86666,-1.90932 2.656,-2.4 0.81066,-0.51199 1.69599,-0.76799 2.656,-0.768 l 0.256,0"
           style="font-size:32px;fill:#80b3ff;font-family:Cabin;-inkscape-font-specification:Cabin"
           id="path3905"
           inkscape:connector-curvature="0" />
        <path
           d="m 556.82761,984.85713 -0.224,2.304 -2.592,0 c -1.38667,0 -2.42134,-0.36267 -3.104,-1.088 -0.66134,-0.72534 -0.992,-1.61067 -0.992,-2.656 l 0,-10.016 -2.688,0 0.256,-2.24 2.432,0 0,-3.872 2.88,-0.288 0,4.16 4.128,0 0,2.24 -4.128,0 0,8.256 c 0,0.74667 0.0213,1.33333 0.064,1.76 0.0427,0.42667 0.15999,0.74666 0.352,0.96 0.21333,0.21333 0.54399,0.352 0.992,0.416 0.44799,0.0427 1.07733,0.064 1.888,0.064 l 0.736,0"
           style="font-size:32px;fill:#80b3ff;font-family:Cabin;-inkscape-font-specification:Cabin"
           id="path3907"
           inkscape:connector-curvature="0" />
        <path
           d="m 564.79211,984.85713 -0.416,2.304 -0.928,0 c -1.408,0 -2.44267,-0.352 -3.104,-1.056 -0.64,-0.72534 -0.96,-1.632 -0.96,-2.72 l 0,-20.544 2.88,0 0,18.88 c 0,0.66133 0.0213,1.20533 0.064,1.632 0.064,0.40533 0.18133,0.72533 0.352,0.96 0.17066,0.21333 0.416,0.36266 0.736,0.448 0.34133,0.064 0.79999,0.096 1.376,0.096"
           style="font-size:32px;fill:#80b3ff;font-family:Cabin;-inkscape-font-specification:Cabin"
           id="path3909"
           inkscape:connector-curvature="0" />
        <path
           d="m 580.13511,979.00113 -11.36,0 c 0.34133,3.73333 2.304,5.6 5.888,5.6 1.59999,0 3.10399,-0.30934 4.512,-0.928 l 0.384,2.272 c -1.85601,0.81066 -3.60534,1.216 -5.248,1.216 -1.32267,0 -2.51734,-0.21334 -3.584,-0.64 -1.04534,-0.42667 -1.93067,-1.00267 -2.656,-1.728 -0.72533,-0.74667 -1.28,-1.62133 -1.664,-2.624 -0.384,-1.024 -0.576,-2.12266 -0.576,-3.296 0,-1.13066 0.18133,-2.18666 0.544,-3.168 0.36267,-0.98133 0.87467,-1.82399 1.536,-2.528 0.66133,-0.72532 1.46133,-1.29066 2.4,-1.696 0.95999,-0.42666 2.02666,-0.63999 3.2,-0.64 1.00266,10e-6 1.91999,0.14934 2.752,0.448 0.83199,0.29868 1.53599,0.73601 2.112,1.312 0.59732,0.57601 1.05599,1.28001 1.376,2.112 0.34132,0.81067 0.51199,1.72801 0.512,2.752 -10e-6,0.59734 -0.0427,1.10934 -0.128,1.536 m -6.688,-5.6 c -2.32534,1e-5 -3.79734,1.20534 -4.416,3.616 l 8.256,0 c -10e-6,-1.15199 -0.32001,-2.03733 -0.96,-2.656 -0.64001,-0.63999 -1.60001,-0.95999 -2.88,-0.96"
           style="font-size:32px;fill:#80b3ff;font-family:Cabin;-inkscape-font-specification:Cabin"
           id="path3911"
           inkscape:connector-curvature="0" />
      </g>
    </g>
  </g>
</svg>
